<svg
							className="footer_btns__item_icon"
							xmlns="http://www.w3.org/2000/svg"
							width="17"
							height="16"
							viewBox="0 0 17 16"
							fill="none"
						>
							<rect
								width="16"
								height="16"
								transform="translate(0.5)"
								fill="white"
							/>
							<path
								d="M0.5 4C0.5 2.89543 1.39543 2 2.5 2H14.5C15.6046 2 16.5 2.89543 16.5 4V5H0.5V4Z"
								fill="currentColor"
							/>
							<path
								d="M0.5 7V12C0.5 13.1046 1.39543 14 2.5 14H14.5C15.6046 14 16.5 13.1046 16.5 12V7H0.5ZM3.5 9H4.5C5.05228 9 5.5 9.44772 5.5 10V11C5.5 11.5523 5.05228 12 4.5 12H3.5C2.94772 12 2.5 11.5523 2.5 11V10C2.5 9.44772 2.94772 9 3.5 9Z"
								fill="currentColor"
							/>
						</svg>